<svg xmlns="http://www.w3.org/2000/svg" viewBox="0 0 400 400">
  <defs>
    <linearGradient id="body" x1="0" y1="0" x2="0" y2="1"><stop offset="0" stop-color="#1a4fd0"/><stop offset="1" stop-color="#0a2a7a"/></linearGradient>
    <linearGradient id="end" x1="0" y1="0" x2="1" y2="1"><stop offset="0" stop-color="#2a3550"/><stop offset="1" stop-color="#0d1426"/></linearGradient>
    <pattern id="mesh" width="8" height="8" patternUnits="userSpaceOnUse"><circle cx="4" cy="4" r="1.3" fill="#fff" opacity=".22"/></pattern>
  </defs>
  <ellipse cx="200" cy="316" rx="160" ry="14" fill="#0a66ff" opacity=".12"/>
  <rect x="56" y="130" width="288" height="170" rx="85" fill="url(#body)"/>
  <rect x="56" y="130" width="288" height="170" rx="85" fill="url(#mesh)"/>
  <ellipse cx="72" cy="215" rx="30" ry="84" fill="url(#end)"/>
  <ellipse cx="328" cy="215" rx="30" ry="84" fill="url(#end)"/>
  <ellipse cx="328" cy="215" rx="18" ry="54" fill="none" stroke="#6fb0ff" stroke-width="3" opacity=".7"/>
  <ellipse cx="72" cy="215" rx="18" ry="54" fill="none" stroke="#6fb0ff" stroke-width="3" opacity=".7"/>
  <rect x="120" y="138" width="160" height="16" rx="8" fill="#0b1220" opacity=".35"/>
  <circle cx="160" cy="146" r="4" fill="#fff"/><circle cx="186" cy="146" r="4" fill="#fff"/><circle cx="214" cy="146" r="4" fill="#fff"/><circle cx="240" cy="146" r="4" fill="#6fb0ff"/>
  <rect x="150" y="200" width="100" height="30" rx="15" fill="#fff" opacity=".12"/>
  <text x="200" y="221" text-anchor="middle" font-family="Inter, Arial, sans-serif" font-size="16" font-weight="800" fill="#fff" letter-spacing="3">NOMI</text>
  <path d="M110 160c40-16 140-16 180 0" fill="none" stroke="#fff" stroke-width="4" stroke-linecap="round" opacity=".18"/>
</svg>
