<svg xmlns="http://www.w3.org/2000/svg" viewBox="0 0 64 64"><defs><linearGradient id="g" x1="0" y1="0" x2="1" y2="1"><stop offset="0" stop-color="#3b8bff"/><stop offset="1" stop-color="#0047c2"/></linearGradient></defs><rect width="64" height="64" rx="16" fill="url(#g)"/><path d="M19 38.5c-3.2 0-5.3-2.9-4.6-6.3l1.6-7.4c.6-2.7 3-4.8 5.8-4.8h20.4c2.8 0 5.2 2.1 5.8 4.8l1.6 7.4c.7 3.4-1.4 6.3-4.6 6.3-1.9 0-3.4-1.1-4.3-2.7l-1.3-2.3H24.6l-1.3 2.3c-.9 1.6-2.4 2.7-4.3 2.7Z" fill="#fff"/><circle cx="24" cy="27" r="2.6" fill="#0a66ff"/><circle cx="40.5" cy="25.2" r="1.6" fill="#0a66ff"/><circle cx="40.5" cy="29.2" r="1.6" fill="#0a66ff"/><path d="M22 45h20" stroke="#fff" stroke-width="3" stroke-linecap="round" opacity=".6"/></svg>
